Coordinates
version=1
nRows=16
nColumns=42
inDegrees=yes

Units are S.I. units (second, meters, Newtons, ...)
If the header above contains a line with 'inDegrees', this indicates whether rotational values are in degrees (yes) or radians (no).

endheader
time	pelvis_tilt	pelvis_list	pelvis_rotation	pelvis_tx	pelvis_ty	pelvis_tz	hip_flexion_r	hip_adduction_r	hip_rotation_r	knee_angle_r	knee_adduction_r	knee_angle_r_beta	ankle_angle_r	subtalar_angle_r	mtp_angle_r	hip_flexion_l	hip_adduction_l	hip_rotation_l	knee_angle_l	knee_adduction_l	knee_angle_l_beta	ankle_angle_l	subtalar_angle_l	mtp_angle_l	lumbar_extension	lumbar_bending	lumbar_rotation	arm_flex_r	arm_add_r	arm_rot_r	elbow_flex_r	pro_sup_r	wrist_flex_r	wrist_dev_r	arm_flex_l	arm_add_l	arm_rot_l	elbow_flex_l	pro_sup_l	wrist_flex_l	wrist_dev_l
      1.88000000	      3.81079008	     -1.83169055	     -2.14919434	     -0.46277394	      0.83964778	      0.24892764	     -6.04204702	      5.35786511	    -38.98787645	     34.02842375	    -25.38915648	      0.59390803	     26.09014922	     35.32683910	     -7.50235709	     34.50254320	      3.08654190	    -14.41751276	     28.47633394	    -12.14283040	      0.49700579	      7.61033185	      5.51233684	     -7.50235709	    -23.00658389	     -0.00035219	      8.13897824	     23.43924700	    -20.04729112	     12.11568034	     48.26459788	     90.00000001	      0.00000000	      0.00000000	    -10.27301099	    -10.19005595	     16.97119282	     28.31872081	     90.00000001	      0.00000000	      0.00000000
      1.89000000	      3.74506932	     -1.34776140	     -2.14119276	     -0.44870817	      0.83912631	      0.24782309	     -6.09078910	      4.44867500	    -38.92440397	     35.59524449	    -25.83515889	      0.62125421	     24.33689881	     34.71690915	     -7.50217030	     34.26555718	      4.00569188	    -12.83738367	     29.93820139	    -11.92977649	      0.52252019	      6.51330289	      2.03754060	     -7.50217030	    -22.80622027	     -0.67806819	      7.93175408	     22.92932176	    -19.52982191	     11.05381819	     48.17817801	     90.00000001	      0.00000000	      0.00000000	    -10.20027317	    -10.59797019	     18.28657170	     28.26335287	     90.00000001	      0.00000000	      0.00000000
      1.90000000	      3.73878433	     -0.83954507	     -2.16768825	     -0.43451264	      0.83888404	      0.24667771	     -6.04549508	      3.43574366	    -38.90378333	     37.38730646	    -26.32064777	      0.65253160	     22.26757880	     34.49150548	     -7.50214229	     34.14816901	      4.71383037	    -12.74274405	     31.50720265	    -12.10662432	      0.54990442	      6.50503908	      1.55128793	     -7.50214229	    -22.65887262	     -1.37783596	      7.72501484	     22.42532881	    -19.31210883	     10.98276916	     48.03122762	     90.00000001	      0.00000000	      0.00000000	    -10.08478100	    -10.77731706	     18.45556029	     28.24702117	     90.00000001	      0.00000000	      0.00000000
      1.91000000	      3.65073787	     -0.30525861	     -2.07183257	     -0.42058630	      0.83900899	      0.24541014	     -5.70778340	      2.53655991	    -38.77587529	     39.36225531	    -26.88550484	      0.68700096	     18.90935264	     32.39388521	     -7.50199519	     33.94909200	      5.63372588	    -11.39471885	     33.01673687	    -11.76045470	      0.57625077	      5.80327576	     -1.68697189	     -7.50199519	    -22.46795039	     -2.08322412	      7.46242685	     21.77760064	    -18.82191864	     10.03254047	     47.77269375	     90.00000001	      0.00000000	      0.00000000	     -9.70469573	    -11.17820639	     19.64397311	     28.10567146	     90.00000001	      0.00000000	      0.00000000
      1.92000000	      3.64134615	      0.22822736	     -1.97084650	     -0.40669702	      0.83948967	      0.24411374	     -5.26028665	      1.59312186	    -38.75445348	     41.53836117	    -27.53345468	      0.72498117	     15.31690263	     30.79352916	     -7.50192031	     33.70584904	      6.43841388	    -10.88233135	     34.48639112	    -11.64526248	      0.60190107	      5.99616758	     -3.06062373	     -7.50192031	    -22.36962533	     -2.77262625	      7.20656867	     21.16410325	    -18.51263109	      9.72604081	     47.46407156	     90.00000001	      0.00000000	      0.00000000	     -9.24932618	    -11.49971358	     20.19940876	     28.06860057	     90.00000001	      0.00000000	      0.00000000
      1.93000000	      3.76529087	      0.86448137	     -1.80900973	     -0.39296125	      0.84038987	      0.24253889	     -4.76458654	      0.34956194	    -38.89640339	     44.05549504	    -28.08641572	      0.76891344	     12.71855375	     30.15483644	     -7.50190385	     33.24288937	      7.31824840	    -10.76458073	     35.75713416	    -11.55114156	      0.62407972	      6.51194428	     -3.48908728	     -7.50190385	    -22.46491852	     -3.52659604	      6.80362978	     20.58188845	    -18.34988774	      9.68270878	     47.18777231	     90.00000001	      0.00000000	      0.00000000	     -8.66543095	    -11.75707123	     20.30204754	     28.12347232	     90.00000001	      0.00000000	      0.00000000
      1.94000000	      3.57276380	      1.28783167	     -1.62459041	     -0.37961909	      0.84134154	      0.24114286	     -3.56337390	     -0.30487010	    -38.70439444	     46.77965214	    -28.90146244	      0.81645895	      7.13946547	     25.25989222	     -7.50184567	     32.86699201	      8.12014504	     -9.89035345	     36.65444333	    -11.31000343	      0.63974072	      7.15594598	     -5.30198646	     -7.50184567	    -22.17920121	     -4.02923336	      6.56148779	     19.86986710	    -17.92480668	      9.35417916	     46.61063993	     90.00000001	      0.00000000	      0.00000000	     -7.97295220	    -12.01573825	     20.92659005	     27.92667903	     90.00000001	      0.00000000	      0.00000000
      1.95000000	      3.49628329	      1.80181180	     -1.33733655	     -0.36668487	      0.84271156	      0.23936011	     -2.28552837	     -1.23366964	    -38.21279387	     50.14188486	    -29.16939883	      0.87514098	      3.55049640	     19.42308292	     -7.50172398	     32.24145397	      9.03728626	     -8.98052723	     37.31567687	    -10.88204918	      0.65128142	      7.26205365	     -7.36628160	     -7.50172398	    -22.12300942	     -4.53617922	      6.16866661	     19.28261803	    -17.52819248	      8.81741959	     45.92239774	     90.00000001	      0.00000000	      0.00000000	     -7.04499142	    -12.39753884	     22.12318414	     27.82150068	     90.00000001	      0.00000000	      0.00000000
      1.96000000	      3.36826522	      2.20933306	     -1.07559774	     -0.35399420	      0.84418486	      0.23763407	     -0.74023708	     -2.02362833	    -37.95757130	     53.40239692	    -29.67422676	      0.93204765	     -0.27704626	     14.61628527	     -7.50158895	     31.59606461	      9.76997283	     -8.71226390	     37.70103751	    -10.78536849	      0.65800724	      8.00634280	     -7.99596137	     -7.50158895	    -22.00420007	     -4.90867525	      5.83451992	     18.69987190	    -17.26491274	      8.66783748	     45.26212494	     90.00000001	      0.00000000	      0.00000000	     -6.08826383	    -12.74143336	     23.09775985	     27.88162461	     90.00000001	      0.00000000	      0.00000000
      1.97000000	      3.21500021	      2.53636868	     -0.79813294	     -0.34155691	      0.84582849	      0.23592025	      1.01196297	     -2.71214658	    -37.78070127	     56.67603146	    -30.19646304	      0.98918336	     -3.77037319	      9.84063819	     -7.50151824	     30.87938874	     10.39627030	     -8.68367048	     37.84653475	    -10.83107610	      0.66054664	      9.07464984	     -7.87770318	     -7.50151824	    -21.86242469	     -5.16453516	      5.50503921	     18.12792235	    -17.04379180	      8.79033803	     44.51059757	     90.00000001	      0.00000000	      0.00000000	     -5.08462088	    -12.96854936	     23.45669241	     27.95203202	     90.00000001	      0.00000000	      0.00000000
      1.98000000	      3.02070303	      2.77065863	     -0.53142188	     -0.32945190	      0.84757371	      0.23421732	      2.99408649	     -3.27072276	    -37.21473498	     60.14502061	    -30.31317383	      1.04972864	     -6.22515142	      4.34139195	     -7.50144502	     30.13376167	     10.87445713	     -8.86538645	     37.78347250	    -10.94639691	      0.65944600	     10.08704483	     -7.39467119	     -7.50144502	    -21.69521350	     -5.28046889	      5.15858466	     17.63332420	    -16.88410143	      8.99858463	     43.69220563	     90.00000001	      0.00000000	      0.00000000	     -4.03447058	    -13.14514841	     23.71293977	     28.09162150	     90.00000001	      0.00000000	      0.00000000
      1.99000000	      2.89620867	      3.05361461	     -0.29413145	     -0.31732221	      0.84953631	      0.23247438	      4.96757626	     -4.05838949	    -37.48973210	     63.13519449	    -30.99347448	      1.10191702	     -7.04816927	      2.92104739	     -7.50142737	     29.16426885	     11.46570372	     -9.10297810	     37.42835331	    -11.20051270	      0.65324800	     10.89725294	     -7.22518724	     -7.50142737	    -21.58953727	     -5.44451825	      4.85513633	     16.90117883	    -16.78395426	      9.14948543	     43.16523175	     90.00000001	      0.00000000	      0.00000000	     -3.01081068	    -13.31011571	     23.67112918	     28.38388781	     90.00000001	      0.00000000	      0.00000000
      2.00000000	      2.64641652	      2.97783449	     -0.07963025	     -0.30587118	      0.85150794	      0.23112213	      7.28861227	     -3.95331201	    -35.57750478	     66.68045427	    -29.86979489	      1.16379347	     -9.34470711	     -5.78190536	     -7.50132233	     28.45149853	     11.48369536	     -9.52900059	     37.21917345	    -11.41500385	      0.64959712	     12.23202271	     -5.63259183	     -7.50132233	    -21.40739854	     -5.19112150	      4.55954373	     16.69827391	    -16.63518238	      9.69968073	     42.01905004	     90.00000001	      0.00000000	      0.00000000	     -1.89822926	    -13.40497456	     23.58354997	     28.62449756	     90.00000001	      0.00000000	      0.00000000
      2.01000000	      2.43220673	      2.92626685	      0.13623531	     -0.29439295	      0.85355732	      0.22977067	      9.58762666	     -4.03602006	    -34.66055281	     69.54294182	    -29.39535379	      1.21375331	     -9.47493488	     -9.75901162	     -7.50124510	     27.60752727	     11.56689460	     -9.74142566	     36.88804681	    -11.56838537	      0.64381787	     13.29485945	     -4.64712525	     -7.50124510	    -21.24223987	     -4.95626153	      4.28254498	     16.22463564	    -16.53297994	     10.12985390	     41.29202224	     90.00000001	      0.00000000	      0.00000000	     -0.82345303	    -13.48789173	     23.29290795	     29.01179286	     90.00000001	      0.00000000	      0.00000000
      2.02000000	      2.24602029	      2.84333906	      0.30480395	     -0.28304143	      0.85573108	      0.22857051	     11.90271190	     -4.02010897	    -33.36111012	     72.05642242	    -28.48766455	      1.25762182	     -9.70555971	    -13.49987674	     -7.50116016	     26.69030342	     11.58523525	    -10.14116286	     36.39619384	    -11.80819656	      0.63523342	     14.29379713	     -3.47926358	     -7.50116016	    -21.12452165	     -4.69006351	      4.00569600	     15.79964791	    -16.44680290	     10.65004943	     40.53313413	     90.00000001	      0.00000000	      0.00000000	      0.27626859	    -13.54606863	     22.78374780	     29.49703578	     90.00000001	      0.00000000	      0.00000000
      2.03000000	      2.10212859	      2.71999053	      0.48144862	     -0.27176385	      0.85792731	      0.22752695	     14.17049209	     -3.91367734	    -32.21977529	     74.08212047	    -27.65517923	      1.29297692	     -8.96924263	    -15.58836907	     -7.50109356	     25.69497753	     11.56183711	    -10.34349953	     35.89625512	    -11.97936451	      0.62650784	     15.26421569	     -2.40686452	     -7.50109356	    -21.04933931	     -4.39465693	      3.76312522	     15.29339984	    -16.37670409	     11.09032271	     39.87900693	     90.00000001	      0.00000000	      0.00000000	      1.35527090	    -13.67317364	     22.22967380	     30.07623748	     90.00000001	      0.00000000	      0.00000000
